<?xml version="1.0" encoding="UTF-8"?>
<svg width="30px" height="20px" viewBox="0 0 30 20" version="1.1" xmlns="http://www.w3.org/2000/svg" xmlns:xlink="http://www.w3.org/1999/xlink">
    <!-- Generator: Sketch 47.1 (45422) - http://www.bohemiancoding.com/sketch -->
    <title>dashboard</title>
    <desc>Created with Sketch.</desc>
    <defs></defs>
    <g id="Page-1" stroke="none" stroke-width="1" fill="none" fill-rule="evenodd">
        <g id="CRS-Dashboard_2" transform="translate(-15.000000, -80.000000)" fill-rule="nonzero" fill="#9B9B9B">
            <g id="dashboard" transform="translate(15.000000, 80.000000)">
                <path d="M21.7325683,7.34909581 L14.2067984,13.5251234 C14.1967339,13.5333363 14.1867297,13.5415491 14.1779308,13.5503246 C13.9343339,13.7765162 13.8,14.0782551 13.8,14.3999636 C13.8,15.061494 14.3763278,15.6 15.0856637,15.6 C15.4271935,15.6 15.7498599,15.4757943 16.0235901,15.220295 L22.6403615,8.19575347 C22.8638294,7.95842381 22.851294,7.59925105 22.6114939,7.37542202 C22.3716335,7.15221176 21.9887006,7.14045497 21.7325683,7.34909581 Z" id="Shape"></path>
                <path d="M15,0 C6.72849609,0 0,6.66183621 0,14.849971 C0,16.3859569 0.24046875,17.9062807 0.712910156,19.3697569 C0.7959375,19.6259769 1.03640625,19.8 1.30863281,19.8 L28.6914258,19.8 C28.9636523,19.8 29.2041211,19.6259769 29.2871484,19.3697569 C29.7595312,17.9062807 30,16.3860149 30,14.849971 C30,6.66183621 23.2715039,0 15,0 Z M26.8750195,15.4687391 L28.7066602,15.4687391 C28.6583789,16.515198 28.5169922,17.5539419 28.2275391,18.5624637 L1.77246094,18.5624637 C1.48300781,17.5538839 1.34162109,16.515198 1.29333984,15.4687391 L3.12498047,15.4687391 C3.47044922,15.4687391 3.75,15.1919844 3.75,14.849971 C3.75,14.5079576 3.47044922,14.2312029 3.12498047,14.2312029 L1.28162109,14.2312029 C1.37425781,12.205632 1.90740234,10.2945104 2.80201172,8.59239044 L4.40302734,9.50780995 C4.50193359,9.56401941 4.60933594,9.59058693 4.71550781,9.59058693 C4.93037109,9.59058693 5.14154297,9.48002426 5.25626953,9.28123187 C5.42958984,8.98516058 5.32705078,8.60689237 5.02798828,8.43588567 L3.43054688,7.52249644 C4.50416016,5.86701471 5.92675781,4.4587618 7.59902344,3.39594473 L8.52164063,4.97839477 C8.63636719,5.17660708 8.84759766,5.28774983 9.06240234,5.28774983 C9.16863281,5.28774983 9.27603516,5.2611823 9.37488281,5.20497284 C9.67394531,5.03396614 9.77648438,4.65569794 9.60316406,4.35962664 L8.67873047,2.77416021 C10.3981641,1.88838264 12.3287109,1.36051258 14.3749219,1.2688024 L14.3749219,3.09372462 C14.3749219,3.43573802 14.6544727,3.71249275 14.9999414,3.71249275 C15.3454102,3.71249275 15.6249609,3.43573802 15.6249609,3.09372462 L15.6249609,1.2688024 C17.6711719,1.36051258 19.6017188,1.88838264 21.3211523,2.77416021 L20.3967188,4.35962664 C20.2233984,4.65569794 20.3259375,5.03396614 20.625,5.20497284 C20.7239063,5.2611823 20.8313086,5.28774983 20.9374805,5.28774983 C21.1523438,5.28774983 21.3635156,5.17654907 21.4782422,4.97839477 L22.4008594,3.39594473 C24.073125,4.4587618 25.4957227,5.86701471 26.5693359,7.52249644 L24.9718945,8.43588567 C24.672832,8.60689237 24.570293,8.98516058 24.7436133,9.28123187 C24.8583398,9.48002426 25.0695703,9.59058693 25.284375,9.59058693 C25.3905469,9.59058693 25.4980078,9.56401941 25.5968555,9.50780995 L27.1978711,8.59239044 C28.0924805,10.2945684 28.625625,12.205632 28.7182617,14.2312029 L26.8749023,14.2312029 C26.5294336,14.2312029 26.2498828,14.5079576 26.2498828,14.849971 C26.25,15.1919844 26.5295508,15.4687391 26.8750195,15.4687391 Z" id="Shape"></path>
            </g>
        </g>
    </g>
</svg>