<?xml version="1.0" encoding="UTF-8"?>
<svg width="14px" height="12px" viewBox="0 0 14 12" version="1.1" xmlns="http://www.w3.org/2000/svg" xmlns:xlink="http://www.w3.org/1999/xlink">
    <!-- Generator: Sketch 47.1 (45422) - http://www.bohemiancoding.com/sketch -->
    <title>graph</title>
    <desc>Created with Sketch.</desc>
    <defs></defs>
    <g id="Page-1" stroke="none" stroke-width="1" fill="none" fill-rule="evenodd">
        <g id="CRS-Dashboard_8" transform="translate(-1151.000000, -455.000000)" fill-rule="nonzero" fill="#FFFFFF">
            <g id="Group-8" transform="translate(1137.000000, 448.000000)">
                <g id="Group-7">
                    <g id="graph" transform="translate(14.000000, 7.000000)">
                        <path d="M13.7666667,11.5609756 L13.7666667,3 L10.9666667,3 L10.9666667,11.5609756 L10.2666667,11.5609756 L10.2666667,4.75609756 L7.46666667,4.75609756 L7.46666667,11.5609756 L6.76666667,11.5609756 L6.76666667,6.51219512 L3.96666667,6.51219512 L3.96666667,11.5609756 L3.26666667,11.5609756 L3.26666667,8.48780488 L0.466666667,8.48780488 L0.466666667,11.5609756 L0.233333333,11.5609756 C0.104533333,11.5609756 0,11.6590976 0,11.7804878 C0,11.901878 0.104533333,12 0.233333333,12 L0.466666667,12 L3.26666667,12 L3.96666667,12 L6.76666667,12 L7.46666667,12 L10.2666667,12 L10.9666667,12 L13.7666667,12 C13.8954667,12 14,11.901878 14,11.7804878 C14,11.6590976 13.8954667,11.5609756 13.7666667,11.5609756 Z M0.933333333,11.5609756 L0.933333333,8.92682927 L2.8,8.92682927 L2.8,11.5609756 L0.933333333,11.5609756 Z M4.43333333,11.5609756 L4.43333333,6.95121951 L6.3,6.95121951 L6.3,11.5609756 L4.43333333,11.5609756 Z M7.93333333,11.5609756 L7.93333333,5.19512195 L9.8,5.19512195 L9.8,11.5609756 L7.93333333,11.5609756 Z M11.4333333,11.5609756 L11.4333333,3.43902439 L13.3,3.43902439 L13.3,11.5609756 L11.4333333,11.5609756 Z" id="Shape"></path>
                        <path d="M2.21995925,6 C2.25708636,6 2.29509221,5.98981452 2.32958308,5.96825919 L10.2974117,1.00816506 L9.79872215,2.19015502 C9.74841382,2.3093015 9.79718434,2.44976644 9.90768691,2.5037732 C9.93712497,2.51845924 9.96810084,2.52509165 9.99863734,2.52509165 C10.0821184,2.52509165 10.1618648,2.47345362 10.1987722,2.38628482 L10.9812974,0.531579135 C10.9837139,0.525657341 10.9832746,0.519261805 10.9852518,0.513103139 C10.9894258,0.500548937 10.9927211,0.488468479 10.994918,0.475203662 C10.9960164,0.468571253 10.9995314,0.463123203 10.9999708,0.456253923 C11.0001905,0.453411462 10.999092,0.451042745 10.9993117,0.448200284 C10.9997511,0.439199158 10.9988723,0.430908648 10.998433,0.421907522 C10.9977739,0.408879576 10.9957967,0.396562246 10.9931605,0.383534301 C10.991403,0.374533175 10.9909636,0.365295177 10.9881077,0.356530923 C10.9854714,0.34800354 10.980858,0.340897388 10.977343,0.332606878 C10.9744871,0.327158828 10.9744871,0.320763291 10.9714115,0.315078369 C10.9683359,0.309393448 10.9630634,0.306077243 10.9595484,0.300629193 C10.9549349,0.29328617 10.95142,0.285469402 10.9459278,0.278836994 C10.9402159,0.271730842 10.9329662,0.266756535 10.9263756,0.260360999 C10.9173685,0.251596744 10.9083613,0.243543105 10.8982557,0.236436953 C10.8914454,0.231699519 10.8852942,0.226488341 10.8778248,0.222461521 C10.8754082,0.221277162 10.8740901,0.218908445 10.8716736,0.217724086 C10.8661814,0.215118497 10.8602498,0.215592241 10.8547577,0.213460395 C10.8426749,0.20872296 10.8308118,0.205406756 10.8182896,0.203038039 C10.8125778,0.20185368 10.8079643,0.198300604 10.8020328,0.197826861 L8.92107249,0.00122332091 C8.79914619,-0.0120414962 8.69281768,0.084128428 8.68117426,0.213934139 C8.66931116,0.344213593 8.75784503,0.460043871 8.87845321,0.472598073 L10.0770656,0.59790322 L2.10989605,5.55799734 C2.00466597,5.62337394 1.96885699,5.76833944 2.0294906,5.88156413 C2.0701327,5.95759996 2.14394754,6 2.21995925,6 Z" id="Shape"></path>
                    </g>
                </g>
            </g>
        </g>
    </g>
</svg>