<?xml version="1.0" encoding="UTF-8"?>
<svg width="59px" height="58px" viewBox="0 0 59 58" version="1.1" xmlns="http://www.w3.org/2000/svg" xmlns:xlink="http://www.w3.org/1999/xlink">
    <!-- Generator: Sketch 47.1 (45422) - http://www.bohemiancoding.com/sketch -->
    <title>Group 13</title>
    <desc>Created with Sketch.</desc>
    <defs>
        <path d="M38,41.3691982 C38,41.5231942 37.9066832,41.6620759 37.7635821,41.7210074 C37.620481,41.7798824 37.4557145,41.7473373 37.3462639,41.6384864 L35.8936161,40.1945513 L34.4409683,41.6384864 C34.2915001,41.7871712 34.0489456,41.7871712 33.8994486,41.6384864 L32.4468585,40.1945513 L30.9945276,41.6384299 C30.9226746,41.7098483 30.8252955,41.7499929 30.7237101,41.7499929 C30.6221248,41.7499929 30.5247457,41.7098483 30.4529215,41.6384299 L29.0006194,40.1944948 L27.5473378,41.6385429 C27.3977256,41.7871994 27.1552863,41.7871429 27.0057893,41.6384299 L25.553833,40.1945513 L24.1008683,41.6385429 C23.9513137,41.7871429 23.708932,41.7871429 23.5593774,41.6385429 L22.1063839,40.1944948 L20.6537361,41.6384864 C20.5442855,41.7473373 20.3795478,41.7798824 20.2364179,41.7210074 C20.0933168,41.6620759 20,41.5231942 20,41.3691982 L20,17.3807665 C20,17.1705228 20.1714505,17 20.3829763,17 L32.4468008,17 C32.4906214,17.0024861 32.4968733,17.0036726 32.5031827,17.0046049 C32.545995,17.0134757 32.5517858,17.0146623 32.5574615,17.0163008 C32.6143043,17.0387886 32.6206138,17.0413877 32.6266352,17.0446083 C32.678926,17.0784247 32.6842847,17.0819561 32.6893266,17.0860807 C32.6958569,17.0913919 34.4286951,18.8133259 37.8878412,22.2518828 C37.9236237,22.2935812 37.926159,22.2970843 37.9286943,22.3005309 C37.9636125,22.3588692 37.9697491,22.3730229 37.9751366,22.3874309 C37.9957937,22.4632282 37.9975799,22.4792748 37.9987035,22.4954908 C37.9992221,22.5068666 37.9996543,28.7981023 38,41.3691982 Z M32.4587572,22.903124 C32.247289,22.903124 32.0757809,22.7326294 32.0757809,22.5223575 L32.0757809,17.7627761 L20.77788,17.7627761 L20.77788,40.4512678 L21.8475227,39.3880144 C21.9970773,39.2393296 22.2394878,39.2393296 22.3890425,39.3879862 L23.8420071,40.8320061 L25.2950582,39.3879862 C25.4446705,39.2393296 25.6871386,39.2393296 25.8366356,39.388071 L27.2885919,40.8319496 L28.7418735,39.3879579 C28.8914281,39.2393296 29.1338098,39.2393296 29.283422,39.388071 L30.7356088,40.831893 L32.1878532,39.388071 C32.3374367,39.2393296 32.5799624,39.2392731 32.7294594,39.3880144 L34.1821072,40.8319496 L35.6347261,39.3880144 C35.7842231,39.2393296 36.0267488,39.2393296 36.1763035,39.3880144 L37.2459461,40.4512678 L37.2459461,22.903124 L32.4587572,22.903124 Z" id="path-1"></path>
    </defs>
    <g id="Page-1" stroke="none" stroke-width="1" fill="none" fill-rule="evenodd">
        <g id="CRS-Dashboard_6" transform="translate(-677.000000, -20.000000)">
            <g id="Group-13" transform="translate(677.400000, 20.000000)">
                <circle id="Oval-3" fill="#86899D" cx="29" cy="29" r="29"></circle>
                <g id="Combined-Shape">
                    <use fill="#FFFFFF" fill-rule="evenodd" xlink:href="#path-1"></use>
                    <path stroke="#FFFFFF" stroke-width="0.2" d="M35.8936161,40.3355492 L34.511493,41.7093826 C34.3230164,41.8968713 34.0174368,41.8968713 33.8289495,41.709408 L32.4468634,40.3355568 L31.0650235,41.7093547 C30.974407,41.7994231 30.8516733,41.8499929 30.7237101,41.8499929 C30.5957389,41.8499929 30.4729994,41.7994167 30.3824153,41.7093445 L29.0005984,40.3354884 L27.6178216,41.7094797 C27.4291978,41.8968987 27.1237596,41.8968326 26.9352761,41.7093375 L25.5538113,40.3355582 L24.1713522,41.7094796 C23.9827976,41.8968307 23.6774481,41.8968307 23.4888854,41.7094715 L22.1063909,40.3354884 L20.7242523,41.709391 C20.5862425,41.8466448 20.3787171,41.8876703 20.1983388,41.8134735 C20.0178342,41.7391386 19.9,41.563785 19.9,41.3691982 L19.9,17.3807665 C19.9,17.1151457 20.1163701,16.9 20.3829763,16.9 L32.4524651,16.9001605 C32.5025859,16.9034348 32.5025859,16.9034348 32.5177771,16.9056756 L32.523472,16.9066848 C32.5672781,16.9157198 32.5672781,16.9157198 32.5832984,16.9196859 C32.5842836,16.9199618 32.5842836,16.9199618 32.5942486,16.9233131 C32.6539896,16.9468919 32.6539896,16.9468919 32.680939,16.9606375 C32.7355504,16.9958723 32.7355504,16.9958723 32.7524235,17.0085 C32.7634578,17.0174742 34.1583703,18.403609 37.96373,22.1867606 C38.0013157,22.2307867 38.0013157,22.2307867 38.0144986,22.2491731 C38.0475737,22.304432 38.0592676,22.326907 38.0716179,22.3611369 C38.0908806,22.4318181 38.0964053,22.4588622 38.0985998,22.4909368 C38.0992392,22.5049637 38.0996428,28.3795702 38.1,41.3691954 C38.1,41.563785 37.9821658,41.7391386 37.80163,41.8134864 C37.6213127,41.887673 37.4137561,41.8466433 37.2757662,41.7094094 L35.8936161,40.3355492 Z M31.9757809,17.8627761 L20.87788,17.8627761 L20.87788,40.2108655 L21.7770186,39.3170978 C21.9655713,39.1296418 22.2709754,39.1296308 22.4595345,39.3170575 L23.8420092,40.6910214 L25.2245745,39.3170493 C25.4132112,39.1296175 25.7186833,39.1296505 25.9071488,39.3171633 L27.2886213,40.6909503 L28.6713828,39.3170279 C28.8599634,39.1296154 29.1653334,39.1296594 29.3539282,39.3171563 L30.7356102,40.6908798 L32.1173424,39.317161 C32.3059418,39.1296233 32.6114923,39.1295793 32.7999571,39.3170914 L34.1821065,40.690951 L35.5642083,39.3171114 C35.7527109,39.1296329 36.058246,39.1296329 36.246802,39.3170923 L37.1459461,40.2108655 L37.1459461,23.003124 L32.4587572,23.003124 C32.1921823,23.003124 31.9757809,22.7879806 31.9757809,22.5223575 L31.9757809,17.8627761 Z"></path>
                </g>
                <path d="M30,28.205962 C30,28.0922754 29.9481311,28 29.883998,28 L28.6927313,28 L28.1164707,28 C28.0521814,28 28,28.0922754 28,28.205962 C28,28.3203393 28.0521814,28.411924 28.1164707,28.411924 L28.6929657,28.411924 C28.8669297,28.411924 29.0317541,28.5627694 29.1339296,28.8150072 C29.1823614,28.9340811 29.2144671,29.0650348 29.231965,29.2001326 L28.1164707,29.2001326 C28.0521814,29.2001326 28,29.2929605 28,29.4062327 C28,29.5197812 28.0521814,29.6126091 28.1164707,29.6126091 L29.2363395,29.6126091 C29.2318869,29.6482484 29.2271218,29.6830589 29.220482,29.7177312 C29.1716596,29.9712123 29.0617506,30.1570063 28.9101277,30.2387833 C28.6794516,30.3644878 28.4223724,30.3481876 28.1731047,30.3335451 L28.1202984,30.3300917 C28.0717103,30.3251188 28.0268719,30.3785777 28.0085927,30.4598022 C27.9903918,30.5408885 28.0026559,30.6319207 28.0392142,30.6892474 L29.4752959,32.9480606 C29.4974026,32.982871 29.5248994,33 29.5526306,33 C29.5843456,33 29.6168418,32.9766549 29.639261,32.9309316 C29.6819123,32.8461156 29.6776159,32.7153 29.6296528,32.6408443 L28.4310432,30.7561056 C28.6140687,30.755415 28.7985002,30.7306885 28.9782447,30.6323351 C29.2033746,30.5106365 29.3673398,30.232429 29.4404562,29.8492375 C29.455142,29.7718809 29.4649065,29.6921759 29.4707651,29.612471 L29.883998,29.612471 C29.9481311,29.612471 30,29.5197812 30,29.4060946 C30,29.2928224 29.9481311,29.1999945 29.883998,29.1999945 L29.4698278,29.1999945 C29.449752,28.9809095 29.4002265,28.7659686 29.3230481,28.5743729 C29.2992227,28.5162173 29.2723509,28.4630346 29.2439167,28.4117858 L29.8839199,28.4117858 C29.9481311,28.411924 30,28.3203393 30,28.205962 Z" id="Shape" stroke="#FFFFFF" stroke-width="0.4" fill="#FFFFFF" fill-rule="nonzero"></path>
                <path d="M26.1037553,26.2317126 C27.772111,24.7288205 30.2682247,24.7058979 31.9590498,26.0779183 L30.6187747,26.128961 C30.4458403,26.1360243 30.3122274,26.278224 30.3190484,26.4508094 C30.3257358,26.618597 30.4646985,26.7497352 30.6306781,26.7497352 L30.6421803,26.7497352 L32.699605,26.6740376 C32.8682596,26.666841 33,26.5314381 33,26.3633839 L33,26.3272676 L32.9230957,24.2992894 C32.9168096,24.1268373 32.7711595,23.9937 32.6004988,24.0002303 C32.4282331,24.0075602 32.2934165,24.1492268 32.3007725,24.3218122 L32.3487876,25.5932133 C31.5111323,24.9107348 30.4798119,24.515321 29.3773383,24.4600137 C28.0115175,24.390713 26.6990616,24.8575598 25.685797,25.7727288 C24.2928257,27.0293369 23.701933,28.9423025 24.1445007,30.7627784 C24.1792748,30.9057777 24.3062004,31 24.4466343,31 C24.4719125,31 24.4949169,30.9973346 24.5205962,30.9906711 C24.6869771,30.9489574 24.7906307,30.7810365 24.7495705,30.6161808 C24.3622402,29.0162677 24.8787698,27.3354594 26.1037553,26.2317126 L26.1037553,26.2317126 Z" id="Shape" stroke="#FFFFFF" stroke-width="0.4" fill="#FFFFFF" fill-rule="nonzero"></path>
                <path d="M33.8557711,28.2369351 C33.8140514,28.0711568 33.6465061,27.9678784 33.48096,28.0090565 C33.315414,28.0507676 33.212381,28.219078 33.2535675,28.383657 C33.6422408,29.9840047 33.1249428,31.6636435 31.9041409,32.7675889 C31.0464207,33.542243 29.9703716,33.9236399 28.8983212,33.9236399 C27.8753215,33.9236399 26.854721,33.5771578 26.0315228,32.892056 L27.3834819,32.7697211 C27.5534265,32.7541294 27.6800518,32.6043425 27.6637905,32.4320343 C27.647929,32.2598593 27.4979779,32.1353923 27.3257674,32.1516503 L25.281634,32.3362186 C25.1116894,32.3512773 24.9855972,32.5015972 25.0013254,32.6739055 L25.1852654,34.7174838 C25.1991276,34.8787313 25.3344168,35 25.4930317,35 C25.5022287,35 25.5118256,35 25.520756,34.997468 C25.6907006,34.9817431 25.8177258,34.8320894 25.8011979,34.6592481 L25.6908339,33.415777 C26.5252284,34.0920835 27.548628,34.4844079 28.6409385,34.5402449 C28.7283766,34.5447758 28.8158148,34.5467747 28.9003205,34.5467747 C30.1669741,34.5467747 31.3721811,34.0828884 32.3192056,33.2274773 C33.709019,31.9704135 34.2970939,30.0594312 33.8557711,28.2369351 L33.8557711,28.2369351 Z" id="Shape" stroke="#FFFFFF" stroke-width="0.4" fill="#FFFFFF" fill-rule="nonzero"></path>
            </g>
        </g>
    </g>
</svg>