<?xml version="1.0" encoding="UTF-8"?>
<svg width="59px" height="58px" viewBox="0 0 59 58" version="1.1" xmlns="http://www.w3.org/2000/svg" xmlns:xlink="http://www.w3.org/1999/xlink">
    <!-- Generator: Sketch 47.1 (45422) - http://www.bohemiancoding.com/sketch -->
    <title>Group 7</title>
    <desc>Created with Sketch.</desc>
    <defs></defs>
    <g id="Page-1" stroke="none" stroke-width="1" fill="none" fill-rule="evenodd">
        <g id="CRS-Dashboard_6" transform="translate(-503.000000, -20.000000)">
            <g id="Group-7" transform="translate(503.000000, 20.000000)">
                <g id="Group-4" transform="translate(0.200000, 0.000000)" fill="#86899D">
                    <circle id="Oval-3" cx="29" cy="29" r="29"></circle>
                </g>
                <g id="menu" transform="translate(19.000000, 16.000000)" fill-rule="nonzero" fill="#FFFFFF">
                    <path d="M19.5220588,0 L0.477941176,0 C0.220588235,0 0,0.220963173 0,0.478753541 L0,25.5212465 C0,25.7790368 0.220588235,26 0.477941176,26 L19.5220588,26 C19.7794118,26 20,25.7790368 20,25.5212465 L20,0.478753541 C20,0.220963173 19.7794118,0 19.5220588,0 Z M0.955882353,25.0056657 L0.955882353,0.994334278 L19.0073529,0.994334278 L19.0073529,25.0056657 L0.955882353,25.0056657 Z" id="Shape"></path>
                    <path d="M6.85994116,4.15862197 C6.66721031,3.95322114 6.35884094,3.95322114 6.12756392,4.1243885 L3.85333985,5.87029548 L2.92823175,4.63789055 C2.77404707,4.43248973 2.4656777,4.36402279 2.23440068,4.50095667 C2.00312365,4.63789055 1.92603131,4.91175831 2.080216,5.11715913 L3.31369346,6.79459918 C3.3907858,6.89729959 3.50642431,6.96576653 3.66060899,7 C3.69915516,7 3.69915516,7 3.73770133,7 C3.85333985,7 3.96897836,6.96576653 4.08461687,6.89729959 L6.82139499,4.8090579 C7.05267201,4.63789055 7.05267201,4.36402279 6.85994116,4.15862197 Z" id="Shape" transform="translate(4.500000, 5.500000) rotate(-12.000000) translate(-4.500000, -5.500000) "></path>
                    <path d="M6.85994116,10.158622 C6.66721031,9.95322114 6.35884094,9.95322114 6.12756392,10.1243885 L3.85333985,11.8702955 L2.92823175,10.6378905 C2.77404707,10.4324897 2.4656777,10.3640228 2.23440068,10.5009567 C2.00312365,10.6378905 1.92603131,10.9117583 2.080216,11.1171591 L3.31369346,12.7945992 C3.3907858,12.8972996 3.50642431,12.9657665 3.66060899,13 C3.69915516,13 3.69915516,13 3.73770133,13 C3.85333985,13 3.96897836,12.9657665 4.08461687,12.8972996 L6.82139499,10.8090579 C7.05267201,10.6378905 7.05267201,10.3640228 6.85994116,10.158622 Z" id="Shape" transform="translate(4.500000, 11.500000) rotate(-12.000000) translate(-4.500000, -11.500000) "></path>
                    <path d="M6.85994116,15.158622 C6.66721031,14.9532211 6.35884094,14.9532211 6.12756392,15.1243885 L3.85333985,16.8702955 L2.92823175,15.6378905 C2.77404707,15.4324897 2.4656777,15.3640228 2.23440068,15.5009567 C2.00312365,15.6378905 1.92603131,15.9117583 2.080216,16.1171591 L3.31369346,17.7945992 C3.3907858,17.8972996 3.50642431,17.9657665 3.66060899,18 C3.69915516,18 3.69915516,18 3.73770133,18 C3.85333985,18 3.96897836,17.9657665 4.08461687,17.8972996 L6.82139499,15.8090579 C7.05267201,15.6378905 7.05267201,15.3640228 6.85994116,15.158622 Z" id="Shape" transform="translate(4.500000, 16.500000) rotate(-12.000000) translate(-4.500000, -16.500000) "></path>
                    <path d="M16.5357143,5 L8.46428571,5 C8.21428571,5 8,5.23076923 8,5.5 C8,5.76923077 8.21428571,6 8.46428571,6 L16.5357143,6 C16.7857143,6 17,5.76923077 17,5.5 C17,5.23076923 16.7857143,5 16.5357143,5 Z" id="Shape"></path>
                    <path d="M16.5375494,11 L8.46245059,11 C8.21343874,11 8,11.2307692 8,11.5 C8,11.7692308 8.21343874,12 8.46245059,12 L16.5375494,12 C16.7865613,12 17,11.7692308 17,11.5 C17,11.2307692 16.7865613,11 16.5375494,11 Z" id="Shape"></path>
                    <path d="M16.5357143,16 L8.46428571,16 C8.21428571,16 8,16.2307692 8,16.5 C8,16.7692308 8.21428571,17 8.46428571,17 L16.5357143,17 C16.7857143,17 17,16.7692308 17,16.5 C17,16.2307692 16.7857143,16 16.5357143,16 Z" id="Shape"></path>
                    <path d="M16.5272727,21 L11.4727273,21 C11.2181818,21 11,21.2307692 11,21.5 C11,21.7692308 11.2181818,22 11.4727273,22 L16.5272727,22 C16.7818182,22 17,21.7692308 17,21.5 C17,21.2307692 16.7818182,21 16.5272727,21 Z" id="Shape"></path>
                </g>
            </g>
        </g>
    </g>
</svg>