<?xml version="1.0" encoding="UTF-8"?>
<svg width="31px" height="28px" viewBox="0 0 31 28" version="1.1" xmlns="http://www.w3.org/2000/svg" xmlns:xlink="http://www.w3.org/1999/xlink">
    <!-- Generator: Sketch 47.1 (45422) - http://www.bohemiancoding.com/sketch -->
    <title>Group 3</title>
    <desc>Created with Sketch.</desc>
    <defs></defs>
    <g id="Page-1" stroke="none" stroke-width="1" fill="none" fill-rule="evenodd">
        <g id="CRS-Dashboard_2" transform="translate(-1239.000000, -13.000000)">
            <g id="Group-3" transform="translate(1239.000000, 14.000000)">
                <g id="bell21" transform="translate(0.000000, 3.947368)" fill="#9B9B9B">
                    <g id="Layer_1">
                        <path d="M22.8271382,18.5639803 L19.3174342,13.6924342 L19.3174342,8.13700658 C19.3174342,4.01595395 15.9646382,0.662417763 11.8421053,0.662417763 C7.7203125,0.662417763 4.36677632,4.01521382 4.36677632,8.13700658 L4.36677632,13.6924342 L0.857072368,18.5639803 C0.613569079,18.9022204 0.579523026,19.3492599 0.769736842,19.7200658 C0.959210526,20.0908717 1.34111842,20.323273 1.7578125,20.323273 L9.16504934,20.323273 C9.16504934,20.3321546 9.16282895,20.3373355 9.16282895,20.3439967 C9.16282895,21.8235197 10.3633224,23.0217928 11.8421053,23.0217928 C13.3208882,23.0217928 14.5206414,21.8235197 14.5206414,20.3439967 C14.5206414,20.3358553 14.5184211,20.3299342 14.5184211,20.323273 L21.926398,20.323273 C22.342352,20.323273 22.725,20.0908717 22.9144737,19.7200658 C23.1046875,19.3485197 23.0706414,18.9022204 22.8271382,18.5639803 L22.8271382,18.5639803 Z M3.92639803,18.1028783 L6.37845395,14.6997533 C6.51463816,14.5110197 6.58791118,14.2837993 6.58791118,14.0506579 L6.58791118,8.13626645 C6.58791118,5.23939145 8.94523026,2.88207237 11.8428454,2.88207237 C14.7404605,2.88207237 17.0977796,5.23939145 17.0977796,8.13626645 L17.0977796,14.0506579 C17.0977796,14.2830592 17.1717928,14.5110197 17.3072368,14.6997533 L19.7592928,18.1028783 L3.92639803,18.1028783 L3.92639803,18.1028783 Z" id="Shape"></path>
                    </g>
                </g>
                <circle id="Oval-64" stroke="#FFFFFF" fill="#D0021B" cx="22.1052632" cy="7.89473684" r="7.89473684"></circle>
                <text id="7" font-family=".SFNSText, .SF NS Text" font-size="10" font-weight="normal" letter-spacing="0.211111128" fill="#FFFFFF">
                    <tspan x="19.7368421" y="12.3684211">7</tspan>
                </text>
            </g>
        </g>
    </g>
</svg>