<?xml version="1.0" encoding="UTF-8"?>
<svg width="13px" height="10px" viewBox="0 0 13 10" version="1.1" xmlns="http://www.w3.org/2000/svg" xmlns:xlink="http://www.w3.org/1999/xlink">
    <!-- Generator: Sketch 47.1 (45422) - http://www.bohemiancoding.com/sketch -->
    <title>table</title>
    <desc>Created with Sketch.</desc>
    <defs></defs>
    <g id="Page-1" stroke="none" stroke-width="1" fill="none" fill-rule="evenodd">
        <g id="CRS-Dashboard_8" transform="translate(-791.000000, -165.000000)" fill-rule="nonzero" fill="#FFFFFF">
            <g id="table" transform="translate(791.000000, 165.000000)">
                <path d="M12.7410359,0 L0.258964143,0 C0.115964143,0 0,0.115016057 0,0.256904303 L0,9.7430957 C0,9.88498394 0.115964143,10 0.258964143,10 L12.7410359,10 C12.8840359,10 13,9.88498394 13,9.7430957 L13,0.256904303 C13,0.115016057 12.8840359,0 12.7410359,0 Z M3.12051793,9.48619139 L0.517928287,9.48619139 L0.517928287,8.10157996 L3.12051793,8.10157996 L3.12051793,9.48619139 Z M3.12051793,7.58774566 L0.517928287,7.58774566 L0.517928287,6.20313423 L3.12051793,6.20313423 L3.12051793,7.58774566 Z M3.12051793,5.68932563 L0.517928287,5.68932563 L0.517928287,4.30471419 L3.12051793,4.30471419 L3.12051793,5.68932563 Z M3.12051793,3.7908799 L0.517928287,3.7908799 L0.517928287,2.41222864 L3.12051793,2.41222864 L3.12051793,3.7908799 Z M6.24103586,9.48619139 L3.63844622,9.48619139 L3.63844622,8.10157996 L6.24103586,8.10157996 L6.24103586,9.48619139 Z M6.24103586,7.58774566 L3.63844622,7.58774566 L3.63844622,6.20313423 L6.24103586,6.20313423 L6.24103586,7.58774566 Z M6.24103586,5.68932563 L3.63844622,5.68932563 L3.63844622,4.30471419 L6.24103586,4.30471419 L6.24103586,5.68932563 Z M6.24103586,3.7908799 L3.63844622,3.7908799 L3.63844622,2.41222864 L6.24103586,2.41222864 L6.24103586,3.7908799 Z M9.36155378,9.48619139 L6.75896414,9.48619139 L6.75896414,8.10157996 L9.36155378,8.10157996 L9.36155378,9.48619139 Z M9.36155378,7.58774566 L6.75896414,7.58774566 L6.75896414,6.20313423 L9.36155378,6.20313423 L9.36155378,7.58774566 Z M9.36155378,5.68932563 L6.75896414,5.68932563 L6.75896414,4.30471419 L9.36155378,4.30471419 L9.36155378,5.68932563 Z M9.36155378,3.7908799 L6.75896414,3.7908799 L6.75896414,2.41222864 L9.36155378,2.41222864 L9.36155378,3.7908799 Z M12.4820717,9.48619139 L9.87948207,9.48619139 L9.87948207,8.10157996 L12.4820717,8.10157996 L12.4820717,9.48619139 Z M12.4820717,7.58774566 L9.87948207,7.58774566 L9.87948207,6.20313423 L12.4820717,6.20313423 L12.4820717,7.58774566 Z M12.4820717,5.68932563 L9.87948207,5.68932563 L9.87948207,4.30471419 L12.4820717,4.30471419 L12.4820717,5.68932563 Z M12.4820717,3.79090559 L9.87948207,3.79090559 L9.87948207,2.41225434 L12.4820717,2.41225434 L12.4820717,3.79090559 Z M12.4820717,1.89245986 L0.517928287,1.89245986 L0.517928287,0.513808606 L12.4820717,0.513808606 L12.4820717,1.89245986 Z" id="Shape"></path>
                <path d="M5.23584906,2 L9.76415094,2 C9.89438679,2 10,1.77615 10,1.5 C10,1.22385 9.89438679,1 9.76415094,1 L5.23584906,1 C5.10561321,1 5,1.22385 5,1.5 C5,1.77615 5.10561321,2 5.23584906,2 Z" id="Shape"></path>
                <path d="M11.2380952,2 L11.7619048,2 C11.893381,2 12,1.77615 12,1.5 C12,1.22385 11.893381,1 11.7619048,1 L11.2380952,1 C11.106619,1 11,1.22385 11,1.5 C11,1.77615 11.106619,2 11.2380952,2 Z" id="Shape"></path>
            </g>
        </g>
    </g>
</svg>