<?xml version="1.0" encoding="UTF-8"?>
<svg width="20px" height="20px" viewBox="0 0 20 20" version="1.1" xmlns="http://www.w3.org/2000/svg" xmlns:xlink="http://www.w3.org/1999/xlink">
    <!-- Generator: Sketch 47.1 (45422) - http://www.bohemiancoding.com/sketch -->
    <title>thumbnails</title>
    <desc>Created with Sketch.</desc>
    <defs></defs>
    <g id="Page-1" stroke="none" stroke-width="1" fill="none" fill-rule="evenodd">
        <g id="CRS-Dashboard_2" transform="translate(-1020.000000, -23.000000)" stroke="#417505" fill-rule="nonzero" fill="#417505">
            <g id="thumbnails" transform="translate(1021.000000, 24.000000)">
                <path d="M7.67988503,0 L0.320032849,0 C0.143140173,0 0,0.143304419 0,0.320032849 L0,7.67996715 C0,7.85669558 0.143140173,8 0.320032849,8 L7.67996715,8 C7.85685983,8 8,7.85669558 8,7.67996715 L8,0.320032849 C7.99991788,0.143304419 7.8567777,0 7.67988503,0 Z M7.3599343,7.3599343 L0.639983575,7.3599343 L0.639983575,0.639983575 L7.3599343,0.639983575 L7.3599343,7.3599343 L7.3599343,7.3599343 Z" id="Shape"></path>
                <path d="M17.6799672,0 L10.3200328,0 C10.1431402,0 10,0.143304419 10,0.320032849 L10,7.67996715 C10,7.85669558 10.1431402,8 10.3200328,8 L17.6799672,8 C17.8568598,8 18,7.85669558 18,7.67996715 L18,0.320032849 C17.9999179,0.143304419 17.8567777,0 17.6799672,0 Z M17.3599343,7.3599343 L10.6399836,7.3599343 L10.6399836,0.639983575 L17.3599343,0.639983575 L17.3599343,7.3599343 Z" id="Shape"></path>
                <path d="M7.67988503,10 L0.320032849,10 C0.143140173,10 0,10.1433044 0,10.3200328 L0,17.6799672 C0,17.8566956 0.143140173,18 0.320032849,18 L7.67996715,18 C7.85685983,18 8,17.8566956 8,17.6799672 L8,10.3200328 C7.99991788,10.1433044 7.8567777,10 7.67988503,10 Z M7.3599343,17.3599343 L0.639983575,17.3599343 L0.639983575,10.6399836 L7.3599343,10.6399836 L7.3599343,17.3599343 L7.3599343,17.3599343 Z" id="Shape"></path>
                <path d="M17.6799672,10 L10.3200328,10 C10.1431402,10 10,10.1433044 10,10.3200328 L10,17.6799672 C10,17.8566956 10.1431402,18 10.3200328,18 L17.6799672,18 C17.8568598,18 18,17.8566956 18,17.6799672 L18,10.3200328 C17.9999179,10.1433044 17.8567777,10 17.6799672,10 Z M17.3599343,17.3599343 L10.6399836,17.3599343 L10.6399836,10.6399836 L17.3599343,10.6399836 L17.3599343,17.3599343 Z" id="Shape"></path>
            </g>
        </g>
    </g>
</svg>