<?xml version="1.0" encoding="UTF-8"?>
<svg width="30px" height="32px" viewBox="0 0 30 32" version="1.1" xmlns="http://www.w3.org/2000/svg" xmlns:xlink="http://www.w3.org/1999/xlink">
    <!-- Generator: Sketch 47.1 (45422) - http://www.bohemiancoding.com/sketch -->
    <title>cube</title>
    <desc>Created with Sketch.</desc>
    <defs></defs>
    <g id="Page-1" stroke="none" stroke-width="1" fill="none" fill-rule="evenodd">
        <g id="CRS-Dashboard_2" transform="translate(-15.000000, -133.000000)" fill-rule="nonzero" fill="#FFFFFF">
            <g id="cube" transform="translate(15.000000, 133.000000)">
                <path d="M25.2322553,8.74767214 L15.2680543,3.07080502 C15.1024167,2.97639833 14.8982644,2.97639833 14.7325649,3.07080502 L4.76774467,8.7471833 C4.60204515,8.84158999 4.5,9.01604379 4.5,9.20491829 L4.50099073,20.7906058 C4.50099073,20.979297 4.60303588,21.1536897 4.76861156,21.2480964 L14.7318219,26.9291186 C14.8147336,26.9764136 14.9072429,27 14.9997523,27 C15.0921378,27 15.1846472,26.9764136 15.267497,26.9291797 L25.2322553,21.252557 C25.3978929,21.1581503 25.5,20.9836965 25.5,20.794822 L25.5,9.20534602 C25.5000619,9.01647152 25.3979548,8.84207883 25.2322553,8.74767214 Z M14.4640153,25.5557303 L5.57196943,20.4855713 L5.57110254,10.1203883 L14.4648202,15.1875531 L14.4640153,25.5557303 Z M15.0003096,14.2722053 L6.10652997,9.20497939 L15.0003096,4.13873112 L23.8933462,9.20534602 L15.0003096,14.2722053 Z M15.5350559,25.5562191 L15.5357989,15.187492 L24.4287736,10.1206938 L24.4287736,20.4896654 L24.4288355,20.4896654 L15.5350559,25.5562191 Z" id="Shape"></path>
                <path d="M29.9289944,5.94173742 C29.7827672,5.68727698 29.4589739,5.60003691 29.2058766,5.74701612 L27.3066975,6.84914483 C24.7328778,2.73809524 20.1789001,0 14.9998606,0 C9.8208211,0 5.26684339,2.73803371 2.69302365,6.84902178 L0.794211852,5.7469546 C0.541053267,5.60009844 0.217260011,5.68715393 0.0710327726,5.9416759 C-0.0751944656,6.19619786 0.0115992655,6.52159468 0.26475785,6.66857389 L2.16216185,7.76977975 C1.08225931,9.81069275 0.469133215,12.13732 0.469133215,14.6056355 C0.469133215,22.4806817 6.70224522,28.9188507 14.4697945,29.2003814 L14.4697945,30.9678848 C14.4697945,31.2617202 14.706794,31.5 14.9991873,31.5 C15.2915806,31.5 15.5285801,31.2617817 15.5285801,30.9678848 L15.5285801,29.2003199 C23.2968639,28.9195275 29.5306492,22.4810508 29.5306492,14.6055125 C29.5306492,12.1372585 28.9175231,9.81063123 27.8375593,7.76984127 L29.7352694,6.66857389 C29.9884279,6.52159468 30.0751605,6.19619786 29.9289944,5.94173742 Z M28.4718636,14.6055125 C28.4718636,22.0722284 22.4282532,28.1467946 14.9998606,28.1467946 C7.57134549,28.1467946 1.52779638,22.0722284 1.52779638,14.6055125 C1.52779638,7.1387966 7.57134549,1.06416882 14.9998606,1.06416882 C22.4283757,1.06416882 28.4718636,7.13885813 28.4718636,14.6055125 Z" id="Shape"></path>
            </g>
        </g>
    </g>
</svg>