<?xml version="1.0" encoding="UTF-8"?>
<svg width="20px" height="21px" viewBox="0 0 20 21" version="1.1" xmlns="http://www.w3.org/2000/svg" xmlns:xlink="http://www.w3.org/1999/xlink">
    <!-- Generator: Sketch 47.1 (45422) - http://www.bohemiancoding.com/sketch -->
    <title>edit9</title>
    <desc>Created with Sketch.</desc>
    <defs></defs>
    <g id="Page-1" stroke="none" stroke-width="1" fill="none" fill-rule="evenodd">
        <g id="CRS-Dashboard_3" transform="translate(-1189.000000, -324.000000)" fill-rule="nonzero" fill="#9B9B9B">
            <g id="edit9" transform="translate(1189.000000, 324.000000)">
                <path d="M19.961118,9.97252033 C19.8656081,9.55590627 19.6049878,9.1827398 19.2259961,8.92205429 L18.3846954,8.34420142 C18.0610792,8.12213599 17.6724349,8 17.2873468,8 C16.7600098,8 16.2905885,8.21916893 16.0005023,8.60102492 L15.4452236,9.33046158 C15.3095791,9.50763118 15.2978944,9.72535185 15.3710509,9.91700397 C15.1566615,9.91459022 14.94024,9.99327862 14.8111999,10.1622414 L9.42809525,17.2369564 C9.2929588,17.4146088 9.28076604,17.6337777 9.35544671,17.8259126 C9.32039252,17.8331538 9.28737045,17.8423261 9.26450902,17.8539121 L9.23707531,17.8350849 L9.23961546,17.8669464 C9.16290267,17.9113595 8.97696304,18.05184 9.00236463,18.3545249 L9.1745874,20.4540087 C9.18932032,20.6345575 9.27924194,20.7890378 9.42707919,20.8908983 C9.53071767,20.9613799 9.65467742,21 9.78574962,21 C9.84214115,21 9.9005648,20.9927587 9.95543223,20.9782762 L12.0480151,20.4443537 C12.2613885,20.3898028 12.4112578,20.2512533 12.4529164,20.0692562 L12.4788261,20.0624977 L12.4569807,20.0484979 C12.4579968,20.0427049 12.4564727,20.0373946 12.4569807,20.0325671 C12.5047357,20.0427049 12.5524907,20.0538082 12.6017697,20.0538082 C12.8166672,20.0538082 13.0183558,19.9558097 13.1433316,19.7911917 L18.5264363,12.7169594 C18.6315989,12.5803409 18.6732575,12.4118608 18.6442997,12.2443462 C18.6382033,12.2091054 18.617882,12.1791749 18.6067053,12.1463478 C18.6097535,12.1463478 18.6138178,12.1477961 18.617374,12.1477961 C18.8322714,12.1477961 19.0344681,12.0497976 19.1594439,11.8846968 L19.7147226,11.1562256 C19.9712787,10.8187827 20.0586601,10.3992722 19.961118,9.97252033 Z M15.3786714,10.6879572 L16.2702672,11.3015337 L11.1056162,18.2536299 L10.1317193,17.5840544 L15.3786714,10.6879572 Z M9.94222341,20.2140815 L9.82893232,18.836793 L11.3179735,19.8597423 L9.94222341,20.2140815 Z M12.5763682,19.2630621 L11.7238908,18.6765197 L16.8885419,11.7249062 L17.8243364,12.3684132 L12.5763682,19.2630621 Z M19.0801909,10.7178878 L18.5924804,11.3580155 L16.1478315,9.67804226 L16.635034,9.03791452 C16.8920981,8.70095436 17.499196,8.65798953 17.9239106,8.94860559 L18.7657193,9.52645846 C19.2077069,9.83059156 19.3484317,10.3645141 19.0801909,10.7178878 Z" id="Shape"></path>
                <path d="M0.882845051,6.94593707 L4.75525737,6.94593707 C5.21488796,6.94593707 5.58839933,6.58144825 5.58839933,6.13340073 L5.58839933,0.861519019 L14.1161707,0.861519019 L14.1161707,7.32051055 L15,7.32051055 L15,0.812536333 C15,0.364008593 14.6259965,0 14.166858,0 L5.53820413,0 C5.25917785,0 4.93979856,0.126298496 4.72080968,0.317427019 C4.65929595,0.363048149 4.60614809,0.41491217 4.55841344,0.476380639 L0.325284604,5.95091621 C0.136806535,6.19390876 0,6.59201314 0,6.8974346 L0,18.1874637 C0,18.6364716 0.373511368,19 0.832649847,19 L7.60949444,19 L7.60949444,18.1380008 L0.882845051,18.1380008 L0.882845051,6.94593707 Z M4.70506217,1.71679515 L4.70506217,6.08393782 L1.32771235,6.08393782 L4.70506217,1.71679515 Z" id="Shape"></path>
            </g>
        </g>
    </g>
</svg>