<?xml version="1.0" encoding="UTF-8"?>
<svg width="12px" height="12px" viewBox="0 0 12 12" version="1.1" xmlns="http://www.w3.org/2000/svg" xmlns:xlink="http://www.w3.org/1999/xlink">
    <!-- Generator: Sketch 47.1 (45422) - http://www.bohemiancoding.com/sketch -->
    <title>Group 6</title>
    <desc>Created with Sketch.</desc>
    <defs></defs>
    <g id="Page-1" stroke="none" stroke-width="1" fill="none" fill-rule="evenodd">
        <g id="CRS-Dashboard_2" transform="translate(-1084.000000, -307.000000)">
            <g id="Group" transform="translate(930.000000, 306.000000)">
                <g id="Group-6" transform="translate(154.000000, 1.000000)">
                    <circle id="Oval-3" fill="#9B9B9B" cx="6" cy="6" r="6"></circle>
                    <g id="warning12" transform="translate(3.000000, 3.000000)" fill-rule="nonzero" fill="#FFFFFF">
                        <path d="M5.8863871,4.49474654 L3.20825806,0.200276498 C3.15251613,0.111059908 3.06541935,0.0598156682 2.96951613,0.0598156682 C2.87254839,0.0598156682 2.78487097,0.111981567 2.72951613,0.202857143 L0.121064516,4.49539171 C0.0658064516,4.58608295 0.0618387097,4.6840553 0.110225806,4.76396313 C0.158322581,4.84368664 0.249290323,4.88940092 0.359612903,4.88940092 L5.65054839,4.88940092 C5.76116129,4.88940092 5.85203226,4.8435023 5.90003226,4.76322581 C5.94793548,4.68313364 5.94290323,4.58525346 5.8863871,4.49474654 Z M5.43048387,4.5564977 L0.575516129,4.5564977 C0.527225806,4.5564977 0.507774194,4.52414747 0.531967742,4.4843318 L2.92674194,0.543686636 C2.95093548,0.503778802 2.99051613,0.503502304 3.01519355,0.543133641 L5.47316129,4.48488479 C5.49793548,4.5243318 5.47887097,4.5564977 5.43048387,4.5564977 Z" id="Shape"></path>
                        <path d="M3.02796774,3.55400922 C3.13248387,3.55400922 3.22122581,3.46599078 3.22587097,3.35741935 L3.29487097,1.75041475 C3.29980645,1.64184332 3.21096774,1.55400922 3.09687097,1.55400922 L2.90729032,1.55400922 C2.79329032,1.55400922 2.70677419,1.64175115 2.71441935,1.75032258 L2.82503226,3.35769585 C2.83248387,3.46608295 2.92325806,3.55400922 3.02796774,3.55400922 Z" id="Shape"></path>
                        <path d="M3.099,3.75087558 L2.90970968,3.75087558 C2.7956129,3.75087558 2.70309677,3.83870968 2.70309677,3.94764977 L2.70309677,4.1278341 C2.70309677,4.2364977 2.7956129,4.32460829 2.90970968,4.32460829 L3.099,4.32460829 C3.21329032,4.32460829 3.30590323,4.2364977 3.30590323,4.1278341 L3.30590323,3.94764977 C3.30590323,3.83870968 3.21329032,3.75087558 3.099,3.75087558 Z" id="Shape"></path>
                    </g>
                </g>
            </g>
        </g>
    </g>
</svg>