<?xml version="1.0" encoding="UTF-8"?>
<svg width="24px" height="24px" viewBox="0 0 24 24" version="1.1" xmlns="http://www.w3.org/2000/svg" xmlns:xlink="http://www.w3.org/1999/xlink">
    <!-- Generator: Sketch 47.1 (45422) - http://www.bohemiancoding.com/sketch -->
    <title>settings3</title>
    <desc>Created with Sketch.</desc>
    <defs></defs>
    <g id="Page-1" stroke="none" stroke-width="1" fill="none" fill-rule="evenodd">
        <g id="CRS-Dashboard_2" transform="translate(-16.000000, -194.000000)" fill="#9B9B9B">
            <g id="settings3" transform="translate(16.000000, 194.000000)">
                <g id="Layer_1">
                    <g id="settings">
                        <path d="M22.1025455,9.22181818 L19.8741818,8.77527273 C19.7621818,8.45309091 19.6298182,8.14036364 19.4836364,7.83781818 L20.7461818,5.944 C21.1309091,5.36727273 21.0545455,4.59854545 20.5643636,4.10909091 L19.1650909,2.70981818 C18.8836364,2.42836364 18.512,2.28363636 18.1352727,2.28363636 C17.8567273,2.28363636 17.5752727,2.36363636 17.3301818,2.528 L15.4363636,3.78981818 C15.1323636,3.64290909 14.8196364,3.512 14.4974545,3.4 L14.0509091,1.17090909 C13.9156364,0.490181818 13.3178182,0.00145454545 12.6247273,0.00145454545 L10.6465455,0.00145454545 C9.95345455,0.00145454545 9.35636364,0.490909091 9.22036364,1.17090909 L8.77381818,3.4 C8.45163636,3.512 8.13890909,3.64363636 7.83636364,3.78981818 L5.94327273,2.528 C5.69672727,2.36363636 5.416,2.28363636 5.13672727,2.28363636 C4.76072727,2.28363636 4.38909091,2.42836364 4.10763636,2.70981818 L2.70909091,4.10909091 C2.21890909,4.59927273 2.14254545,5.36727273 2.52727273,5.944 L3.78909091,7.83781818 C3.64218182,8.14109091 3.51127273,8.45381818 3.39927273,8.776 L1.16945455,9.22181818 C0.489454545,9.35781818 0,9.95490909 0,10.648 L0,12.6261818 C0,13.3192727 0.489454545,13.9170909 1.16945455,14.0523636 L3.39854545,14.4996364 C3.51054545,14.8218182 3.64218182,15.1345455 3.78836364,15.4370909 L2.52727273,17.3309091 C2.14254545,17.9076364 2.21890909,18.6763636 2.70909091,19.1658182 L4.10836364,20.5650909 C4.38981818,20.8465455 4.76145455,20.9912727 5.13745455,20.9912727 C5.41672727,20.9912727 5.69818182,20.9105455 5.94327273,20.7469091 L7.83709091,19.4843636 C8.14036364,19.632 8.45309091,19.7629091 8.77527273,19.8749091 L9.22109091,22.1032727 C9.35709091,22.784 9.95418182,23.2734545 10.6472727,23.2734545 L12.6254545,23.2734545 C13.3185455,23.2734545 13.9163636,22.7832727 14.0516364,22.1032727 L14.4989091,19.8749091 C14.8210909,19.7629091 15.1338182,19.6305455 15.4363636,19.4843636 L17.3301818,20.7469091 C17.576,20.9105455 17.8574545,20.9912727 18.1352727,20.9912727 C18.512,20.9912727 18.8836364,20.8465455 19.1650909,20.5650909 L20.5643636,19.1658182 C21.0545455,18.6756364 21.1309091,17.9076364 20.7461818,17.3309091 L19.4836364,15.4370909 C19.6312727,15.1330909 19.7621818,14.8203636 19.8741818,14.4981818 L22.1025455,14.0523636 C22.7825455,13.9178182 23.2727273,13.3192727 23.2727273,12.6261818 L23.2727273,10.648 C23.2727273,9.95490909 22.7825455,9.35781818 22.1025455,9.22181818 L22.1025455,9.22181818 Z M19.5883636,13.0727273 C19.0829091,13.1738182 18.6690909,13.5345455 18.5003636,14.0218182 C18.4065455,14.2901818 18.2974545,14.5505455 18.1752727,14.8029091 C17.9490909,15.2676364 17.9876364,15.816 18.2734545,16.2443636 L19.536,18.1381818 L18.1367273,19.5374545 L16.2429091,18.2749091 C16,18.1127273 15.7185455,18.0305455 15.4363636,18.0305455 C15.2203636,18.0305455 15.0029091,18.0785455 14.8029091,18.1752727 C14.5498182,18.2974545 14.2901818,18.408 14.0203636,18.5018182 C13.5345455,18.6705455 13.1738182,19.0843636 13.0727273,19.5898182 L12.6254545,21.8196364 L10.6472727,21.8196364 L10.2014545,19.5898182 C10.1003636,19.0843636 9.73963636,18.6705455 9.25309091,18.5018182 C8.98472727,18.408 8.72363636,18.2989091 8.47127273,18.1767273 C8.27054545,18.0785455 8.05381818,18.0305455 7.83709091,18.0305455 C7.55418182,18.0305455 7.27345455,18.1127273 7.03054545,18.2749091 L5.13672727,19.5374545 L3.73745455,18.1381818 L4.99927273,16.2443636 C5.28509091,15.8152727 5.32218182,15.2669091 5.09890909,14.8043636 C4.97672727,14.5512727 4.86690909,14.2916364 4.77309091,14.0218182 C4.60436364,13.536 4.18981818,13.1752727 3.68509091,13.0741818 L1.456,12.6269091 L1.45454545,10.648 L3.68436364,10.2021818 C4.18909091,10.1010909 4.60363636,9.74036364 4.77236364,9.25381818 C4.86618182,8.98545455 4.97454545,8.72436364 5.09745455,8.472 C5.32290909,8.008 5.28509091,7.45963636 4.99854545,7.03127273 L3.73745455,5.13745455 L5.136,3.73818182 L7.02981818,5 C7.27272727,5.16218182 7.55418182,5.24436364 7.83636364,5.24436364 C8.05236364,5.24436364 8.26909091,5.19636364 8.46981818,5.09963636 C8.72218182,4.97745455 8.98254545,4.86763636 9.25163636,4.77381818 C9.73818182,4.60509091 10.0989091,4.19054545 10.2,3.68581818 L10.6465455,1.45672727 L12.6247273,1.456 L13.0705455,3.68581818 C13.1716364,4.19054545 13.5323636,4.60509091 14.0196364,4.77381818 C14.288,4.86763636 14.5483636,4.976 14.8007273,5.09890909 C15.0021818,5.19636364 15.2181818,5.24436364 15.4356364,5.24436364 C15.7185455,5.24436364 15.9992727,5.16218182 16.2421818,5 L18.136,3.73818182 L19.5352727,5.13745455 L18.2727273,7.03127273 C17.9869091,7.46036364 17.9505455,8.008 18.1730909,8.47127273 C18.2952727,8.72363636 18.4058182,8.984 18.4996364,9.25309091 C18.6683636,9.73963636 19.0821818,10.1003636 19.5876364,10.2014545 L21.816,10.648 L21.8181818,12.6261818 L19.5883636,13.0727273 L19.5883636,13.0727273 Z" id="Shape"></path>
                        <path d="M11.6363636,6.54618182 C8.82545455,6.54618182 6.54545455,8.82618182 6.54545455,11.6370909 C6.54545455,14.4487273 8.82545455,16.728 11.6363636,16.728 C14.4472727,16.728 16.7272727,14.448 16.7272727,11.6370909 C16.7272727,8.82618182 14.4472727,6.54618182 11.6363636,6.54618182 L11.6363636,6.54618182 Z M11.6363636,16.0923636 C9.17672727,16.0923636 7.18181818,14.0967273 7.18181818,11.6378182 C7.18181818,9.17818182 9.17672727,7.18327273 11.6363636,7.18327273 C14.0952727,7.18327273 16.0909091,9.17818182 16.0909091,11.6378182 C16.0909091,14.0967273 14.0952727,16.0923636 11.6363636,16.0923636 L11.6363636,16.0923636 Z" id="Shape"></path>
                        <path d="M11.6363636,8.728 C10.0290909,8.728 8.72727273,10.0298182 8.72727273,11.6370909 C8.72727273,13.2436364 10.0290909,14.5461818 11.6363636,14.5461818 C13.2429091,14.5461818 14.5454545,13.2436364 14.5454545,11.6370909 C14.5454545,10.0305455 13.2429091,8.728 11.6363636,8.728 L11.6363636,8.728 Z M11.6363636,13.8196364 C10.432,13.8196364 9.45454545,12.8421818 9.45454545,11.6378182 C9.45454545,10.4334545 10.432,9.456 11.6363636,9.456 C12.8407273,9.456 13.8181818,10.4334545 13.8181818,11.6378182 C13.8181818,12.8421818 12.8407273,13.8196364 11.6363636,13.8196364 L11.6363636,13.8196364 Z" id="Shape"></path>
                    </g>
                </g>
            </g>
        </g>
    </g>
</svg>