<?xml version="1.0" encoding="UTF-8"?>
<svg width="11px" height="19px" viewBox="0 0 11 19" version="1.1" xmlns="http://www.w3.org/2000/svg" xmlns:xlink="http://www.w3.org/1999/xlink">
    <!-- Generator: Sketch 47.1 (45422) - http://www.bohemiancoding.com/sketch -->
    <title>trash9</title>
    <desc>Created with Sketch.</desc>
    <defs></defs>
    <g id="Page-1" stroke="none" stroke-width="1" fill="none" fill-rule="evenodd">
        <g id="CRS-Dashboard_3" transform="translate(-1222.000000, -323.000000)" fill-rule="nonzero" fill="#9B9B9B">
            <g id="trash9" transform="translate(1222.000000, 323.000000)">
                <path d="M10.0505584,4 L0.949441149,4 C0.426290561,4 0,4.43385516 0,4.96749702 L0,18.032503 C0,18.5661448 0.426290561,19 0.949441149,19 L10.0510906,19 C10.5737089,19 10.9999995,18.5661448 10.9999995,18.032503 L10.9999995,4.96749702 C11.0005317,4.43385516 10.5742411,4 10.0505584,4 Z M3.24481092,17.3866011 C3.24481092,17.5644817 3.10271407,17.7092809 2.92815314,17.7092809 L1.58275671,17.7092809 C1.40872798,17.7092809 1.26663113,17.5644817 1.26663113,17.3866011 L1.26663113,5.61231426 C1.26663113,5.43497596 1.40872798,5.28963448 1.58275671,5.28963448 L2.92815314,5.28963448 C3.10271407,5.28963448 3.24481092,5.43497596 3.24481092,5.61231426 L3.24481092,17.3866011 Z M6.48908965,17.3866011 C6.48908965,17.5644817 6.3464606,17.7092809 6.17243187,17.7092809 L4.82756764,17.7092809 C4.65300671,17.7092809 4.51090985,17.5644817 4.51090985,17.3866011 L4.51090985,5.61231426 C4.51090985,5.43497596 4.65300671,5.28963448 4.82756764,5.28963448 L6.17243187,5.28963448 C6.34699279,5.28963448 6.48908965,5.43497596 6.48908965,5.61231426 L6.48908965,17.3866011 Z M9.73390057,17.3866011 C9.73390057,17.5644817 9.59180372,17.7092809 9.41777499,17.7092809 L8.07237856,17.7092809 C7.89781763,17.7092809 7.75572078,17.5644817 7.75572078,17.3866011 L7.75572078,5.61231426 C7.75572078,5.43497596 7.89781763,5.28963448 8.07237856,5.28963448 L9.41777499,5.28963448 C9.59180372,5.28963448 9.73390057,5.43497596 9.73390057,5.61231426 L9.73390057,17.3866011 Z" id="Shape"></path>
                <path d="M0.650547067,3 L10.3489118,3 C10.7089833,3 11,2.70987093 11,2.35157244 C11,1.99327395 10.7089833,1.70314488 10.3489118,1.70314488 L7.79552789,1.70314488 L7.79552789,0.648427559 C7.79552789,0.290674423 7.50341508,0 7.14389161,0 L3.82980869,0 C3.47028522,0 3.17817241,0.290674423 3.17817241,0.648427559 L3.17817241,1.70314488 L0.651643175,1.70314488 C0.292667764,1.70314488 6.89391281e-06,1.99327395 6.89391281e-06,2.35157244 C-0.00163726828,2.70987093 0.291023602,3 0.650547067,3 Z M4,1 L6,1 L6,1.743 L4,1.743 L4,1 Z" id="Shape"></path>
            </g>
        </g>
    </g>
</svg>