<?xml version="1.0" encoding="UTF-8"?>
<svg width="55px" height="49px" viewBox="0 0 55 49" version="1.1" xmlns="http://www.w3.org/2000/svg" xmlns:xlink="http://www.w3.org/1999/xlink">
    <!-- Generator: Sketch 47.1 (45422) - http://www.bohemiancoding.com/sketch -->
    <title>upload</title>
    <desc>Created with Sketch.</desc>
    <defs></defs>
    <g id="Page-1" stroke="none" stroke-width="1" fill="none" fill-rule="evenodd">
        <g id="CRS-Dashboard_9" transform="translate(-943.000000, -295.000000)" fill-rule="nonzero" fill="#4A4A4A">
            <g id="upload" transform="translate(943.000000, 295.000000)">
                <path d="M53.5998633,33.255814 C52.826748,33.255814 52.1997266,33.8908099 52.1997266,34.6742437 L52.1997266,40.0941818 C52.1997266,43.2225843 49.6873437,45.7677918 46.5992871,45.7677918 L8.40071289,45.7677918 C5.31265625,45.7677918 2.80027344,43.2225843 2.80027344,40.0941818 L2.80027344,34.6742437 C2.80027344,33.8908099 2.1734668,33.255814 1.40013672,33.255814 C0.626806641,33.255814 0,33.8908099 0,34.6742437 L0,40.0941818 C0,44.78684 3.76857422,48.6046512 8.40071289,48.6046512 L46.5992871,48.6046512 C51.2314258,48.6046512 55,44.78684 55,40.0941818 L55,34.6742437 C55,33.8908099 54.3731934,33.255814 53.5998633,33.255814 Z" id="Shape"></path>
                <path d="M44.6562867,39.0116279 L9.70428507,39.0116279 C8.93658395,39.0116279 8.31395349,39.5842359 8.31395349,40.2906977 C8.31395349,40.9971595 8.93637061,41.5697674 9.70428507,41.5697674 L44.65618,41.5697674 C45.4240945,41.5697674 46.0465116,40.9971595 46.0465116,40.2906977 C46.0465116,39.5842359 45.4240945,39.0116279 44.6562867,39.0116279 Z" id="Shape"></path>
                <path d="M41.1068305,11.4615067 L29.4901524,0.898092224 C28.173282,-0.299255764 26.1873359,-0.29947238 24.8703591,0.898092224 L13.2536811,11.4613984 C12.6823917,11.9807365 12.6330197,12.8731967 13.1433389,13.4547039 C13.6535517,14.0359944 14.5302239,14.0866826 15.1017261,13.5670195 L25.7935304,3.84483548 L25.7935304,31.204589 C25.7935304,31.9843003 26.4146174,32.6162791 27.1804154,32.6162791 C27.9464262,32.6162791 28.5673004,31.9843003 28.5673004,31.204589 L28.5673004,3.84483548 L39.2591047,13.5670195 C39.523628,13.8075722 39.8536968,13.9260615 40.1824888,13.9260615 C40.5637385,13.9260615 40.9432857,13.7669566 41.2173855,13.4548122 C41.7273854,12.873305 41.6780134,11.9810615 41.1068305,11.4615067 Z" id="Shape"></path>
            </g>
        </g>
    </g>
</svg>